#N canvas 537 155 289 268 10;
#X obj 21 87 *~ 64;
#X obj 21 43 phasor~;
#X obj 21 225 outlet~;
#X obj 21 196 *~;
#X obj 21 21 inlet~;
#X obj 21 156 lop~ 400;
#X obj 93 133 r filter;
#X obj 93 65 r buffer;
#N canvas 113 472 365 276 sensor_data 0;
#X obj 17 83 spigot;
#X obj 87 83 spigot;
#X obj 159 83 spigot;
#X obj 159 163 s metro;
#X obj 17 14 r accel;
#X obj 17 229 s filter;
#X obj 17 207 line;
#X obj 17 163 + 50;
#X obj 17 141 * 4000;
#X obj 17 119 sqrt;
#X msg 17 185 \$1 10;
#X obj 87 185 line;
#X obj 87 119 * 200;
#X obj 87 207 s buffer;
#X obj 87 141 + 3;
#X msg 87 163 \$1 30;
#X obj 159 119 * 200;
#X obj 159 141 + 1;
#X obj 231 59 loadbang;
#X msg 231 83 1;
#X msg 263 83 0.303;
#X msg 307 83 0;
#X obj 76 14 r bwts;
#X obj 50 59 == 1;
#X obj 120 59 == 2;
#X obj 192 59 == 3;
#X connect 0 0 9 0;
#X connect 1 0 12 0;
#X connect 2 0 16 0;
#X connect 4 0 0 0;
#X connect 4 0 1 0;
#X connect 4 0 2 0;
#X connect 6 0 5 0;
#X connect 7 0 10 0;
#X connect 8 0 7 0;
#X connect 9 0 8 0;
#X connect 10 0 6 0;
#X connect 11 0 13 0;
#X connect 12 0 14 0;
#X connect 14 0 15 0;
#X connect 15 0 11 0;
#X connect 16 0 17 0;
#X connect 17 0 3 0;
#X connect 18 0 19 0;
#X connect 18 0 20 0;
#X connect 18 0 21 0;
#X connect 19 0 9 0;
#X connect 20 0 12 0;
#X connect 21 0 16 0;
#X connect 22 0 23 0;
#X connect 22 0 24 0;
#X connect 22 0 25 0;
#X connect 23 0 0 1;
#X connect 24 0 1 1;
#X connect 25 0 2 1;
#X restore 168 21 pd sensor_data;
#N canvas 719 340 553 356 wavetables 0;
#X text 268 63 square wave;
#X text 268 145 Triangle wave;
#X text 268 240 saw wave;
#X obj 118 166 t b f;
#X obj 23 92 metro 30;
#X obj 23 114 random 3;
#X obj 23 21 r metro;
#X obj 23 70 > 1;
#X obj 80 21 loadbang;
#X msg 80 60 0;
#X msg 177 91 \; bwavetable sinesum 64 1 0 0.333333 0  0.2 0  0.142857
0 0.111111 0 0.0909091 0 0.0769231;
#X msg 177 173 \; bwavetable sinesum 64 1 0 -0.111111 0 0.04 0 -0.0204082
0 0.0123457 0 -0.00826446 0 0.00591716 0 -0.00444444 0 0.00346021;
#X msg 177 268 \; bwavetable sinesum 64 1 0.5 0.333333 0.25 0.2 0.166667
0.142857 0.125 0.111111 0.1 0.0909091 0.0833333 0.0769231;
#X obj 407 63 table bwavetable;
#X msg 177 21 \; bwavetable normalize 1;
#X obj 118 136 r bwtf;
#X obj 177 63 sel 1;
#X obj 177 145 sel 2;
#X obj 177 240 sel 3;
#X connect 3 0 14 0;
#X connect 3 1 16 0;
#X connect 3 1 17 0;
#X connect 3 1 18 0;
#X connect 4 0 5 0;
#X connect 5 0 3 0;
#X connect 6 0 7 0;
#X connect 6 0 4 1;
#X connect 7 0 4 0;
#X connect 8 0 9 0;
#X connect 9 0 3 0;
#X connect 15 0 3 0;
#X connect 16 0 10 0;
#X connect 17 0 11 0;
#X connect 18 0 12 0;
#X restore 168 46 pd wavetables;
#X obj 21 110 tabread4~ bwavetable;
#N canvas 967 661 177 127 onoff 1;
#X obj 45 12 r bank;
#X obj 45 34 == 1;
#X obj 12 34 r s0;
#X obj 12 56 spigot;
#X obj 115 12 r bank;
#X obj 115 34 == 1;
#X obj 82 56 spigot;
#X obj 82 34 r f0;
#X obj 12 78 s bwts;
#X obj 82 78 s bwtf;
#X connect 0 0 1 0;
#X connect 1 0 3 1;
#X connect 2 0 3 0;
#X connect 3 0 8 0;
#X connect 4 0 5 0;
#X connect 5 0 6 1;
#X connect 6 0 9 0;
#X connect 7 0 6 0;
#X restore 168 71 pd onoff;
#X obj 93 172 r bwtf;
#X connect 0 0 10 0;
#X connect 1 0 0 0;
#X connect 3 0 2 0;
#X connect 4 0 1 0;
#X connect 5 0 3 0;
#X connect 6 0 5 1;
#X connect 7 0 0 1;
#X connect 10 0 5 0;
#X connect 12 0 3 1;
