#N canvas 460 581 478 157 10;
#X obj 15 7 netreceive 3000;
#X obj 15 28 route data;
#X obj 15 81 change;
#X obj 65 81 change;
#X obj 115 81 change;
#X obj 165 81 change;
#X obj 215 81 change;
#X obj 15 49 unpack 0 0 0 0 0 0 0 0 0;
#X obj 265 104 s s0;
#X obj 315 104 s s1;
#X obj 365 104 s s2;
#X obj 415 104 s s3;
#X obj 265 81 change;
#X obj 315 81 change;
#X obj 365 81 change;
#X obj 415 81 change;
#X obj 65 104 s p0;
#X obj 115 104 s p1;
#X obj 15 104 s pr;
#X obj 165 104 s p2;
#X obj 215 104 s p3;
#X connect 0 0 1 0;
#X connect 1 0 7 0;
#X connect 2 0 18 0;
#X connect 3 0 16 0;
#X connect 4 0 17 0;
#X connect 5 0 19 0;
#X connect 6 0 20 0;
#X connect 7 0 2 0;
#X connect 7 1 3 0;
#X connect 7 2 4 0;
#X connect 7 3 5 0;
#X connect 7 4 6 0;
#X connect 7 5 12 0;
#X connect 7 6 13 0;
#X connect 7 7 14 0;
#X connect 7 8 15 0;
#X connect 12 0 8 0;
#X connect 13 0 9 0;
#X connect 14 0 10 0;
#X connect 15 0 11 0;
