#N canvas 623 425 183 258 10;
#X obj 93 107 loadbang;
#X obj 16 207 s rev;
#X obj 16 107 spigot;
#X obj 16 29 r accel;
#X obj 16 163 * 200;
#X obj 16 185 + 5;
#X msg 93 131 0;
#X obj 93 73 spigot;
#X obj 126 29 r bank;
#X obj 93 51 r s2;
#X obj 126 51 == 3;
#X connect 0 0 6 0;
#X connect 2 0 4 0;
#X connect 3 0 2 0;
#X connect 4 0 5 0;
#X connect 5 0 1 0;
#X connect 6 0 4 0;
#X connect 7 0 2 1;
#X connect 8 0 10 0;
#X connect 9 0 7 0;
#X connect 10 0 7 1;
