#N canvas 702 388 402 256 10;
#X obj 14 17 inlet~;
#X obj 14 115 outlet~;
#X obj 14 91 *~;
#X obj 71 68 *~;
#X obj 29 68 == 0;
#X obj 56 91 *~;
#X obj 60 17 inlet on/off;
#X obj 141 17 inlet 2nd_wave;
#X obj 71 47 osc~ \$1;
#X connect 0 0 2 0;
#X connect 0 0 5 0;
#X connect 2 0 1 0;
#X connect 3 0 5 1;
#X connect 4 0 2 1;
#X connect 5 0 1 0;
#X connect 6 0 4 0;
#X connect 6 0 3 1;
#X connect 7 0 8 0;
#X connect 8 0 3 0;
