#N canvas 713 415 198 295 10;
#X obj 18 13 inlet~;
#X obj 18 233 outlet~;
#X obj 18 207 *~;
#X obj 75 185 *~;
#X obj 75 122 osc~;
#X obj 60 207 *~;
#X obj 75 13 r accel;
#X obj 75 64 + 0.01;
#X obj 75 41 spigot;
#X obj 33 185 == 0;
#X obj 75 100 *;
#X obj 137 64 sel 0;
#X obj 137 100 loadbang;
#X msg 137 122 1;
#N canvas 719 340 155 124 onoff 0;
#X obj 39 9 r bank;
#X obj 6 53 spigot;
#X obj 109 9 r bank;
#X obj 76 53 spigot;
#X obj 6 75 s frgs;
#X obj 76 75 s frgf;
#X obj 6 31 r s1;
#X obj 76 31 r f1;
#X obj 39 31 == 0;
#X obj 109 31 == 0;
#X connect 0 0 8 0;
#X connect 1 0 4 0;
#X connect 2 0 9 0;
#X connect 3 0 5 0;
#X connect 6 0 1 0;
#X connect 7 0 3 0;
#X connect 8 0 1 1;
#X connect 9 0 3 1;
#X restore 137 185 pd onoff;
#X obj 137 13 r frgs;
#X obj 137 155 r frgf;
#X connect 0 0 2 0;
#X connect 0 0 5 0;
#X connect 2 0 1 0;
#X connect 3 0 5 1;
#X connect 4 0 3 0;
#X connect 5 0 1 0;
#X connect 6 0 8 0;
#X connect 7 0 10 0;
#X connect 8 0 7 0;
#X connect 9 0 2 1;
#X connect 10 0 4 0;
#X connect 11 1 10 1;
#X connect 12 0 13 0;
#X connect 13 0 10 1;
#X connect 13 0 10 0;
#X connect 15 0 8 1;
#X connect 15 0 11 0;
#X connect 16 0 3 1;
#X connect 16 0 9 0;
