#N canvas 0 0 1888 980 10;
#X obj 12 9 adc~;
#X obj 101 140 dbtorms;
#X obj 12 140 mtof;
#X msg 104 73 amp-range 50 70;
#X obj 104 51 loadbang;
#X obj 12 192 spigot;
#X obj 58 192 sel 0;
#X obj 58 161 > 150;
#X obj 101 192 spigot;
#X msg 58 214 0 30;
#X obj 12 51 hip~ 230;
#X obj 12 73 lop~ 1300;
#X msg 113 265 \$1 5;
#X obj 12 264 line;
#X obj 12 285 s fr;
#X obj 193 327 line~;
#X obj 180 425 s~ rms;
#X msg 12 214 \$1 5;
#X obj 12 109 fiddle~ 1024 1 20 7;
#X obj 363 124 route 1 2 3 4 5 6 7;
#X obj 363 165 unpack;
#X obj 412 165 unpack;
#X obj 461 165 unpack;
#X obj 510 165 unpack;
#X obj 559 165 unpack;
#X obj 608 165 unpack;
#X obj 657 165 unpack;
#X obj 351 328 +;
#X obj 421 267 * 50;
#X obj 471 267 * 50;
#X obj 102 214 clip 0 1;
#X obj 339 422 lop~ 5;
#X obj 339 442 clip~ 0 1;
#X obj 180 393 *~;
#X obj 343 393 +;
#X obj 471 289 t b f;
#X obj 351 350 t b f;
#X floatatom 534 411 5 0 0 0 - - -, f 5;
#X connect 0 0 10 0;
#X connect 0 1 10 0;
#X connect 1 0 34 0;
#X connect 2 0 7 0;
#X connect 2 0 5 0;
#X connect 3 0 18 0;
#X connect 4 0 3 0;
#X connect 5 0 17 0;
#X connect 6 0 9 0;
#X connect 7 0 5 1;
#X connect 7 0 6 0;
#X connect 7 0 8 1;
#X connect 7 0 12 0;
#X connect 8 0 30 0;
#X connect 10 0 11 0;
#X connect 11 0 18 0;
#X connect 12 0 15 0;
#X connect 13 0 14 0;
#X connect 15 0 33 0;
#X connect 17 0 13 0;
#X connect 18 2 1 0;
#X connect 18 2 2 0;
#X connect 18 4 19 0;
#X connect 19 0 20 0;
#X connect 19 1 21 0;
#X connect 19 2 22 0;
#X connect 19 3 23 0;
#X connect 19 4 24 0;
#X connect 19 5 25 0;
#X connect 19 6 26 0;
#X connect 20 1 28 0;
#X connect 21 1 28 0;
#X connect 22 1 28 0;
#X connect 23 1 29 0;
#X connect 24 1 29 0;
#X connect 25 1 29 0;
#X connect 26 1 29 0;
#X connect 27 0 36 0;
#X connect 28 0 27 0;
#X connect 29 0 35 0;
#X connect 31 0 32 0;
#X connect 32 0 33 1;
#X connect 33 0 16 0;
#X connect 34 0 37 0;
#X connect 35 0 27 0;
#X connect 35 1 27 1;
#X connect 36 0 34 0;
#X connect 36 1 34 1;
