#N canvas 719 340 450 300 10;
#X obj 76 100 *~ 64;
#X obj 76 56 phasor~;
#X obj 26 298 outlet~;
#X obj 26 269 *~;
#X obj 41 247 == 0;
#X obj 78 269 *~;
#X obj 26 28 inlet~;
#X obj 76 169 lop~ 400;
#X obj 121 146 r filter;
#X obj 103 78 r buffer;
#X obj 76 123 tabread4~ \$0-wavetable;
#N canvas 719 340 450 323 sensor_data 0;
#X obj 121 82 change;
#X obj 121 14 r sensor;
#X obj 121 208 count 3;
#X obj 121 124 t b b;
#X obj 121 145 timer;
#X obj 121 166 < 1000;
#X obj 121 103 sel 0;
#X obj 121 187 sel 1;
#X obj 51 242 == 0;
#X obj 121 242 == 1;
#X obj 193 242 == 2;
#X obj 18 266 spigot;
#X obj 88 266 spigot;
#X obj 160 266 spigot;
#X obj 160 332 s metro;
#X obj 18 207 r accel;
#X obj 18 398 s filter;
#X obj 18 376 line;
#X obj 18 332 + 50;
#X obj 18 310 * 4000;
#X obj 18 288 sqrt;
#X msg 18 354 \$1 10;
#X obj 88 354 line;
#X obj 88 288 * 200;
#X obj 88 376 s buffer;
#X obj 88 310 + 3;
#X msg 88 332 \$1 30;
#X obj 160 288 * 200;
#X obj 160 310 + 1;
#X obj 121 35 expr ($f1 == 100) || ($f1 == 101) || ($f1 == 110) ||
($f1 == 111) || ($f1 == 1100) || ($f1 == 1101) || ($f1 == 1110) ||
($f1 == 1111);
#X connect 0 0 6 0;
#X connect 1 0 29 0;
#X connect 2 0 8 0;
#X connect 2 0 9 0;
#X connect 2 0 10 0;
#X connect 3 0 4 0;
#X connect 3 1 4 1;
#X connect 4 0 5 0;
#X connect 5 0 7 0;
#X connect 6 0 3 0;
#X connect 7 0 2 0;
#X connect 8 0 11 1;
#X connect 9 0 12 1;
#X connect 10 0 13 1;
#X connect 11 0 20 0;
#X connect 12 0 23 0;
#X connect 13 0 27 0;
#X connect 15 0 11 0;
#X connect 15 0 12 0;
#X connect 15 0 13 0;
#X connect 17 0 16 0;
#X connect 18 0 21 0;
#X connect 19 0 18 0;
#X connect 20 0 19 0;
#X connect 21 0 17 0;
#X connect 22 0 24 0;
#X connect 23 0 25 0;
#X connect 25 0 26 0;
#X connect 26 0 22 0;
#X connect 27 0 28 0;
#X connect 28 0 14 0;
#X connect 29 0 0 0;
#X restore 224 28 pd sensor_data;
#N canvas 586 127 857 780 wavetables 0;
#X obj 249 57 table \$0-wavetable;
#X msg 19 85 \; \$0-wavetable sinesum 64 1 0 0.333333 0  0.2 0  0.142857
0 0.111111 0 0.0909091 0 0.0769231;
#X msg 19 16 \; \$0-wavetable normalize 1;
#X msg 19 262 \; \$0-wavetable sinesum 64 1 0.5 0.333333 0.25 0.2 0.166667
0.142857 0.125 0.111111 0.1 0.0909091 0.0833333 0.0769231;
#X text 110 57 square wave;
#X text 110 139 Triangle wave;
#X text 110 234 saw wave;
#X msg 19 167 \; \$0-wavetable sinesum 64 1 0 -0.111111 0 0.04 0 -0.0204082
0 0.0123457 0 -0.00826446 0 0.00591716 0 -0.00444444 0 0.00346021;
#X obj 389 245 t b f;
#X obj 389 69 change;
#X obj 389 201 count 3;
#X obj 389 113 t b b;
#X obj 389 135 timer;
#X obj 389 157 < 1000;
#X obj 389 91 sel 0;
#X obj 389 179 sel 1;
#X obj 389 25 r fx;
#X obj 389 47 >= 21000;
#X obj 19 57 sel 0;
#X obj 19 139 sel 1;
#X obj 19 234 sel 2;
#X obj 466 178 metro 30;
#X obj 466 200 random 3;
#X obj 466 134 r metro;
#X obj 466 156 > 1;
#X connect 8 0 2 0;
#X connect 8 1 18 0;
#X connect 8 1 19 0;
#X connect 8 1 20 0;
#X connect 9 0 14 0;
#X connect 10 0 8 0;
#X connect 11 0 12 0;
#X connect 11 1 12 1;
#X connect 12 0 13 0;
#X connect 13 0 15 0;
#X connect 14 0 11 0;
#X connect 15 0 10 0;
#X connect 16 0 17 0;
#X connect 17 0 9 0;
#X connect 18 0 1 0;
#X connect 19 0 7 0;
#X connect 20 0 3 0;
#X connect 21 0 22 0;
#X connect 22 0 8 0;
#X connect 23 0 24 0;
#X connect 23 0 21 1;
#X connect 24 0 21 0;
#X restore 224 56 pd wavetables;
#X obj 121 197 r f2;
#X connect 0 0 10 0;
#X connect 1 0 0 0;
#X connect 3 0 2 0;
#X connect 4 0 3 1;
#X connect 5 0 2 0;
#X connect 6 0 3 0;
#X connect 6 0 1 0;
#X connect 7 0 5 0;
#X connect 8 0 7 1;
#X connect 9 0 0 1;
#X connect 10 0 7 0;
#X connect 13 0 4 0;
#X connect 13 0 5 1;
