#N canvas 719 340 464 340 10;
#X obj 18 42 delwrite~ b1 5000;
#X obj 179 237 vd~ b1;
#X obj 178 42 phasor~;
#X obj 179 130 *~ -1;
#X obj 179 153 +~ 1;
#X obj 241 182 sig~ 1;
#X obj 256 203 cos~;
#X obj 241 224 -~;
#X obj 241 245 *~ 0.5;
#X obj 179 268 *~;
#X obj 241 151 samphold~;
#X obj 179 182 *~;
#X obj 241 130 sig~;
#X obj 314 68 +~ 0.5;
#X obj 314 90 wrap~;
#X text 18 141 3.7.2.1. Granular live;
#X text 18 117 www.pd-tutorial.com;
#X text 18 93 Johannes Kreidler;
#X obj 314 236 vd~ b1;
#X obj 314 129 *~ -1;
#X obj 314 152 +~ 1;
#X obj 386 181 sig~ 1;
#X obj 401 202 cos~;
#X obj 386 223 -~;
#X obj 386 244 *~ 0.5;
#X obj 314 267 *~;
#X obj 386 150 samphold~;
#X obj 314 181 *~;
#X obj 386 129 sig~;
#X obj 18 19 inlet~;
#X obj 179 308 outlet~;
#X text 18 69 Mostly taken from:;
#X obj 178 18 inlet speed;
#X obj 314 18 inlet window;
#X connect 1 0 9 0;
#X connect 2 0 3 0;
#X connect 2 0 6 0;
#X connect 2 0 10 1;
#X connect 2 0 13 0;
#X connect 3 0 4 0;
#X connect 4 0 11 0;
#X connect 5 0 7 0;
#X connect 6 0 7 1;
#X connect 7 0 8 0;
#X connect 8 0 9 1;
#X connect 9 0 30 0;
#X connect 10 0 11 1;
#X connect 11 0 1 0;
#X connect 12 0 10 0;
#X connect 13 0 14 0;
#X connect 14 0 19 0;
#X connect 14 0 22 0;
#X connect 14 0 26 1;
#X connect 18 0 25 0;
#X connect 19 0 20 0;
#X connect 20 0 27 0;
#X connect 21 0 23 0;
#X connect 22 0 23 1;
#X connect 23 0 24 0;
#X connect 24 0 25 1;
#X connect 25 0 30 0;
#X connect 26 0 27 1;
#X connect 27 0 18 0;
#X connect 28 0 26 0;
#X connect 29 0 0 0;
#X connect 32 0 2 0;
#X connect 33 0 12 0;
#X connect 33 0 28 0;
