#N canvas 238 532 265 203 10;
#X obj 21 83 osc~;
#X obj 21 137 *~;
#X obj 21 17 r~ fr;
#X obj 102 61 switch~;
#X obj 102 105 r~ rms;
#X obj 21 39 octaver;
#X obj 21 61 freq_glide;
#X obj 21 105 fm;
#X obj 102 17 r bank;
#X obj 102 39 expr $f1 == 0 || $f1 == 3;
#X obj 21 160 throw~ tofx;
#X connect 0 0 7 0;
#X connect 1 0 10 0;
#X connect 2 0 5 0;
#X connect 4 0 1 1;
#X connect 5 0 6 0;
#X connect 6 0 0 0;
#X connect 7 0 1 0;
#X connect 8 0 9 0;
#X connect 9 0 3 0;
