#N canvas 785 394 478 384 10;
#X obj 266 31 t b f;
#X obj 100 10 inlet on/off;
#X obj 44 230 == 0;
#X obj 183 10 inlet sensor;
#X obj 266 10 inlet octaves;
#X obj 183 91 *;
#X obj 183 165 line;
#X msg 183 143 \$1 10;
#X obj 11 10 inlet signal;
#X obj 11 281 outlet;
#X obj 11 251 spigot;
#X obj 67 254 spigot;
#X obj 422 111 f \$1;
#X obj 366 61 loadbang;
#X obj 366 111 f 1;
#X floatatom 183 70 5 0 0 0 - - -;
#X floatatom 100 202 5 0 0 0 - - -;
#X obj 391 111 f \$2;
#X obj 366 85 t b b b;
#X obj 168 41 ftom;
#X obj 168 190 +;
#X obj 168 211 mtof;
#X obj 366 10 inlet octaves;
#X obj 183 118 *;
#X obj 366 31 t b f;
#X connect 0 0 15 0;
#X connect 0 1 5 1;
#X connect 1 0 16 0;
#X connect 2 0 10 1;
#X connect 3 0 15 0;
#X connect 4 0 0 0;
#X connect 5 0 23 0;
#X connect 6 0 20 1;
#X connect 7 0 6 0;
#X connect 8 0 10 0;
#X connect 8 0 19 0;
#X connect 10 0 9 0;
#X connect 11 0 9 0;
#X connect 12 0 16 0;
#X connect 13 0 18 0;
#X connect 14 0 15 0;
#X connect 15 0 5 0;
#X connect 16 0 2 0;
#X connect 16 0 11 1;
#X connect 17 0 5 1;
#X connect 18 0 14 0;
#X connect 18 1 17 0;
#X connect 18 2 12 0;
#X connect 19 0 20 0;
#X connect 20 0 21 0;
#X connect 21 0 11 0;
#X connect 22 0 24 0;
#X connect 23 0 7 0;
#X connect 24 0 23 0;
#X connect 24 1 23 1;
