#N canvas 222 497 321 444 10;
#X obj 189 30 == 0;
#X obj 189 51 switch~;
#X obj 59 30 r s1;
#X obj 10 330 throw~ todac;
#X obj 104 30 r s2;
#X obj 104 93 int;
#X obj 59 135 spigot;
#X obj 104 135 spigot;
#X obj 10 9 r fr;
#X obj 10 184 osc~;
#X obj 10 308 *~;
#X obj 129 278 r~ rms;
#X obj 10 162 octaver 0 2;
#X obj 59 72 int;
#X obj 59 51 * 12;
#X obj 154 30 * -2;
#X obj 154 51 + 1;
#X obj 104 72 + 1;
#X obj 104 51 * 3;
#X obj 10 229 *~ 2;
#X obj 10 208 lop~ 80;
#X obj 60 208 hip~ 80;
#X obj 60 229 lop~ 1300;
#X obj 129 229 hip~ 1300;
#X obj 129 251 *~ 0.3;
#X obj 59 93 sel 0;
#X msg 59 114 12;
#X obj 45 9 r p0;
#X obj 80 9 r p1;
#X obj 119 9 r p2;
#X obj 189 9 r pr;
#X obj 154 9 r p3;
#X connect 0 0 1 0;
#X connect 2 0 14 0;
#X connect 4 0 18 0;
#X connect 5 0 7 0;
#X connect 6 0 12 2;
#X connect 7 0 12 3;
#X connect 8 0 12 0;
#X connect 9 0 20 0;
#X connect 9 0 21 0;
#X connect 10 0 3 0;
#X connect 11 0 10 1;
#X connect 12 0 9 0;
#X connect 13 0 25 0;
#X connect 14 0 13 0;
#X connect 15 0 16 0;
#X connect 16 0 12 4;
#X connect 17 0 5 0;
#X connect 18 0 17 0;
#X connect 19 0 10 0;
#X connect 20 0 19 0;
#X connect 21 0 22 0;
#X connect 21 0 23 0;
#X connect 22 0 10 0;
#X connect 23 0 24 0;
#X connect 24 0 10 0;
#X connect 25 0 26 0;
#X connect 25 1 6 0;
#X connect 26 0 6 0;
#X connect 27 0 12 1;
#X connect 28 0 6 1;
#X connect 29 0 7 1;
#X connect 30 0 0 0;
#X connect 31 0 15 0;
