#N canvas 271 480 334 379 10;
#X obj 91 171 spigot;
#X obj 41 171 spigot;
#X obj 141 171 spigot;
#X obj 191 171 spigot;
#X obj 8 12 r fr;
#X obj 8 339 throw~ todac;
#X obj 8 318 *~;
#X obj 120 288 r~ rms;
#X obj 8 198 random_tables 64 4000 0 3;
#X obj 262 57 switch~;
#X obj 262 35 == 1;
#X obj 262 12 r pr;
#X obj 91 103 + 50;
#X obj 91 79 * 4000;
#X obj 91 57 sqrt;
#X msg 91 125 \$1 10;
#X obj 41 125 line;
#X obj 41 57 * 200;
#X obj 41 79 + 3;
#X msg 41 103 \$1 30;
#X obj 141 57 * 200;
#X obj 141 79 + 1;
#X obj 191 57 * 3;
#X obj 191 79 int;
#X obj 91 146 line;
#X obj 191 35 r s0;
#X obj 91 35 r s1;
#X obj 41 35 r s2;
#X obj 141 35 r s3;
#X obj 74 12 r p2;
#X obj 124 12 r p1;
#X obj 174 12 r p3;
#X obj 224 12 r p0;
#X obj 58 244 lop~ 1300;
#X obj 120 244 hip~ 1300;
#X obj 120 266 *~ 0.3;
#X obj 8 244 *~ 2;
#X obj 8 223 lop~ 80;
#X obj 58 223 hip~ 80;
#X connect 0 0 8 2;
#X connect 1 0 8 1;
#X connect 2 0 8 3;
#X connect 3 0 8 4;
#X connect 4 0 8 0;
#X connect 6 0 5 0;
#X connect 7 0 6 1;
#X connect 8 0 37 0;
#X connect 8 0 38 0;
#X connect 10 0 9 0;
#X connect 11 0 10 0;
#X connect 12 0 15 0;
#X connect 13 0 12 0;
#X connect 14 0 13 0;
#X connect 15 0 24 0;
#X connect 16 0 1 0;
#X connect 17 0 18 0;
#X connect 18 0 19 0;
#X connect 19 0 16 0;
#X connect 20 0 21 0;
#X connect 21 0 2 0;
#X connect 22 0 23 0;
#X connect 23 0 3 0;
#X connect 24 0 0 0;
#X connect 25 0 22 0;
#X connect 26 0 14 0;
#X connect 27 0 17 0;
#X connect 28 0 20 0;
#X connect 29 0 1 1;
#X connect 30 0 0 1;
#X connect 31 0 2 1;
#X connect 32 0 3 1;
#X connect 33 0 6 0;
#X connect 34 0 35 0;
#X connect 35 0 6 0;
#X connect 36 0 6 0;
#X connect 37 0 36 0;
#X connect 38 0 33 0;
#X connect 38 0 34 0;
