#N canvas 719 340 332 300 10;
#X obj 11 138 osc~;
#X obj 11 195 *~;
#X obj 85 169 r~ rms;
#X obj 11 12 r fr;
#X obj 85 74 * 500;
#X obj 85 32 r s1;
#X obj 157 32 r s2;
#X obj 157 74 * 1000;
#X obj 157 53 + 0.01;
#X obj 157 116 t b f;
#X obj 11 217 throw~ todac;
#X obj 237 53 switch~;
#X obj 237 32 == 2;
#X obj 11 169 fm 500;
#X obj 85 116 line;
#X msg 85 95 \$1 10;
#X obj 85 138 spigot;
#X obj 157 95 spigot;
#X obj 120 12 r p1;
#X obj 190 12 r p2;
#X obj 237 12 r pr;
#X obj 48 12 r p0;
#X obj 85 53 + 0.01;
#X connect 0 0 13 0;
#X connect 1 0 10 0;
#X connect 2 0 1 1;
#X connect 3 0 0 0;
#X connect 4 0 15 0;
#X connect 5 0 22 0;
#X connect 6 0 8 0;
#X connect 7 0 17 0;
#X connect 8 0 7 0;
#X connect 9 0 4 0;
#X connect 9 1 4 1;
#X connect 12 0 11 0;
#X connect 13 0 1 0;
#X connect 14 0 16 0;
#X connect 15 0 14 0;
#X connect 16 0 13 2;
#X connect 17 0 9 0;
#X connect 18 0 16 1;
#X connect 19 0 17 1;
#X connect 20 0 12 0;
#X connect 21 0 13 1;
#X connect 22 0 4 0;
