#N canvas 156 547 288 163 10;
#X obj 129 79 spigot;
#X obj 11 35 osc~;
#X obj 11 13 r fr;
#X obj 11 125 throw~ todac;
#X obj 11 79 *~;
#X obj 26 57 r~ rms;
#X obj 84 79 spigot;
#X obj 217 57 switch~;
#X obj 217 35 == 3;
#X obj 11 103 s_delay 15000;
#X obj 129 35 r s3;
#X obj 84 35 r s2;
#X obj 129 57 clip 0.1 0.99;
#X obj 117 13 r p2;
#X obj 162 13 r p3;
#X obj 81 13 r p1;
#X obj 46 13 r p0;
#X obj 217 13 r pr;
#X connect 0 0 9 4;
#X connect 1 0 4 0;
#X connect 2 0 1 0;
#X connect 4 0 9 0;
#X connect 5 0 4 1;
#X connect 6 0 9 3;
#X connect 8 0 7 0;
#X connect 9 0 3 0;
#X connect 10 0 12 0;
#X connect 11 0 6 0;
#X connect 12 0 0 0;
#X connect 13 0 6 1;
#X connect 14 0 0 1;
#X connect 15 0 9 2;
#X connect 16 0 9 1;
#X connect 17 0 8 0;
