#N canvas 719 340 325 420 10;
#X obj 10 239 JK_granular;
#X obj 123 145 line;
#X obj 123 57 sqrt;
#X msg 123 123 \$1 10;
#X obj 173 145 line;
#X msg 173 123 \$1 30;
#X obj 123 79 * 700;
#X obj 123 101 + 1;
#X obj 173 79 * 700;
#X obj 173 101 + 3;
#X obj 10 126 adc~;
#X obj 65 123 r fr;
#X obj 65 145 osc~;
#X obj 10 190 *~;
#X obj 65 190 *~;
#X obj 25 167 == 1;
#X obj 80 167 == 2;
#X obj 25 79 int;
#X obj 238 49 switch~;
#X obj 238 27 == 4;
#X obj 10 288 throw~ todac;
#X obj 10 265 *~;
#X obj 123 239 r~ rms;
#X obj 65 211 *~ 0.8;
#X obj 25 101 spigot;
#X obj 25 35 r s0;
#X obj 58 4 r p0;
#X obj 25 57 * 2;
#X obj 123 35 r s1;
#X obj 173 35 r s2;
#X obj 156 5 r s1;
#X obj 206 5 r s2;
#X obj 123 167 spigot;
#X obj 173 167 spigot;
#X obj 173 57 sqrt;
#X obj 238 5 r pr;
#X connect 0 0 21 0;
#X connect 1 0 32 0;
#X connect 2 0 6 0;
#X connect 3 0 1 0;
#X connect 4 0 33 0;
#X connect 5 0 4 0;
#X connect 6 0 7 0;
#X connect 7 0 3 0;
#X connect 8 0 9 0;
#X connect 9 0 5 0;
#X connect 10 0 13 0;
#X connect 10 1 13 0;
#X connect 11 0 12 0;
#X connect 12 0 14 0;
#X connect 13 0 0 0;
#X connect 14 0 23 0;
#X connect 15 0 13 1;
#X connect 16 0 14 1;
#X connect 17 0 24 0;
#X connect 19 0 18 0;
#X connect 21 0 20 0;
#X connect 22 0 21 1;
#X connect 23 0 0 0;
#X connect 24 0 15 0;
#X connect 24 0 16 0;
#X connect 25 0 27 0;
#X connect 26 0 24 1;
#X connect 27 0 17 0;
#X connect 28 0 2 0;
#X connect 29 0 34 0;
#X connect 30 0 32 1;
#X connect 31 0 33 1;
#X connect 32 0 0 1;
#X connect 33 0 0 2;
#X connect 34 0 8 0;
#X connect 35 0 19 0;
