#N canvas 0 50 1920 1004 10;
#X obj 211 115 spigot;
#X obj 211 71 * 200;
#X obj 211 93 + 5;
#X obj 271 115 spigot;
#X obj 271 71 * 400;
#X obj 254 244 switch~;
#X obj 35 278 throw~ todac;
#X obj 161 71 * 4;
#X obj 161 93 int;
#X obj 98 115 spigot;
#X obj 161 115 spigot;
#X obj 38 30 r fr;
#X obj 38 194 osc~;
#X obj 38 225 *~;
#X obj 131 10 r s0;
#X obj 194 10 r s1;
#X obj 114 149 octaver 1 1;
#X obj 211 139 s rev;
#X obj 244 10 r s2;
#X obj 304 10 r s3;
#X obj 254 222 == 5;
#X obj 254 200 r pr;
#X obj 106 184 r~ rms;
#X obj 108 248 rev3~ 100 90 3000 20;
#X connect 0 0 17 0;
#X connect 1 0 2 0;
#X connect 2 0 0 0;
#X connect 3 0 1 1;
#X connect 4 0 3 0;
#X connect 7 0 8 0;
#X connect 8 0 10 0;
#X connect 9 0 16 2;
#X connect 10 0 16 3;
#X connect 11 0 12 0;
#X connect 12 0 13 0;
#X connect 13 0 23 0;
#X connect 14 0 9 1;
#X connect 15 0 10 1;
#X connect 18 0 0 1;
#X connect 19 0 3 1;
#X connect 20 0 5 0;
#X connect 21 0 20 0;
#X connect 22 0 13 1;
#X connect 23 0 6 0;
