#N canvas 599 118 395 346 10;
#X obj 142 138 spigot;
#X obj 142 116 + 5;
#X obj 202 138 spigot;
#X obj 272 64 switch~;
#X obj 18 245 throw~ todac;
#X obj 92 116 int;
#X obj 39 138 spigot;
#X obj 92 138 spigot;
#X obj 18 20 r fr;
#X obj 18 166 osc~;
#X obj 18 193 *~;
#X obj 272 42 == 5;
#X obj 272 20 r pr;
#X obj 202 166 r~ rms;
#X obj 18 219 rev3~ 100 90 3000 20;
#X obj 92 50 r s1;
#X obj 142 50 r s2;
#X obj 202 50 r s3;
#X obj 39 50 r s0;
#X obj 39 72 * 100;
#X obj 92 94 + 70;
#X obj 92 72 * 30;
#X obj 142 72 * 2000;
#X obj 142 94 + 2000;
#X obj 202 72 * 90;
#X obj 202 94 + 10;
#X obj 72 20 r p0;
#X obj 125 20 r p1;
#X obj 175 20 r p2;
#X obj 235 20 r p3;
#X connect 0 0 14 4;
#X connect 1 0 0 0;
#X connect 2 0 14 5;
#X connect 5 0 7 0;
#X connect 6 0 14 2;
#X connect 7 0 14 3;
#X connect 8 0 9 0;
#X connect 9 0 10 0;
#X connect 10 0 14 0;
#X connect 11 0 3 0;
#X connect 12 0 11 0;
#X connect 13 0 10 1;
#X connect 14 0 4 0;
#X connect 15 0 21 0;
#X connect 16 0 22 0;
#X connect 17 0 24 0;
#X connect 18 0 19 0;
#X connect 19 0 6 0;
#X connect 20 0 5 0;
#X connect 21 0 20 0;
#X connect 22 0 23 0;
#X connect 23 0 1 0;
#X connect 24 0 25 0;
#X connect 25 0 2 0;
#X connect 26 0 6 1;
#X connect 27 0 7 1;
#X connect 28 0 0 1;
#X connect 29 0 2 1;
