#N canvas 137 309 275 345 10;
#X obj 16 207 tremolo;
#X obj 16 16 r fr;
#X obj 16 178 osc~;
#X obj 16 326 throw~ todac;
#X obj 69 178 spigot;
#X obj 69 86 sqrt;
#X obj 190 178 spigot;
#X obj 190 113 * 150;
#X obj 190 87 sqrt;
#X obj 255 63 switch~;
#X obj 255 41 == 6;
#X obj 20 228 *~;
#X obj 125 207 r~ rms;
#X obj 69 132 *;
#X obj 84 44 == 0;
#X obj 139 132 *;
#X obj 154 44 == 1;
#X obj 139 111 * 70;
#X obj 69 111 * 15;
#X obj 69 153 change;
#X obj 139 153 change;
#X obj 190 65 r s2;
#X obj 69 65 r s1;
#X obj 154 16 r p3;
#X obj 255 16 r pr;
#X obj 223 16 r p2;
#X obj 55 16 r p0;
#X obj 102 16 r p1;
#X obj 16 252 lop~ 260;
#X obj 109 264 hip~ 260;
#X obj 99 293 *~ 1.5;
#X connect 0 0 11 0;
#X connect 1 0 2 0;
#X connect 2 0 0 0;
#X connect 4 0 0 2;
#X connect 5 0 18 0;
#X connect 5 0 17 0;
#X connect 6 0 0 3;
#X connect 7 0 6 0;
#X connect 8 0 7 0;
#X connect 10 0 9 0;
#X connect 11 0 28 0;
#X connect 11 0 29 0;
#X connect 12 0 11 1;
#X connect 13 0 19 0;
#X connect 14 0 13 1;
#X connect 15 0 20 0;
#X connect 16 0 15 1;
#X connect 17 0 15 0;
#X connect 18 0 13 0;
#X connect 19 0 4 0;
#X connect 20 0 4 0;
#X connect 21 0 8 0;
#X connect 22 0 5 0;
#X connect 23 0 14 0;
#X connect 23 0 16 0;
#X connect 24 0 10 0;
#X connect 25 0 6 1;
#X connect 26 0 0 1;
#X connect 27 0 4 1;
#X connect 28 0 3 0;
#X connect 29 0 30 0;
#X connect 30 0 3 0;
