#N canvas 155 364 219 242 10;
#X obj 15 252 throw~ todac;
#X obj 195 55 switch~;
#X obj 195 11 r pr;
#X obj 195 33 == 7;
#X obj 85 109 r~ rms;
#X obj 15 60 osc~;
#X obj 15 82 *~;
#X obj 50 11 r p0;
#X obj 15 11 r fr;
#X obj 50 60 osc~;
#X obj 50 82 *~;
#X obj 50 39 * 3;
#X obj 85 11 r p1;
#X obj 85 60 osc~;
#X obj 85 82 *~;
#X obj 120 11 r p2;
#X obj 15 134 *~;
#X obj 15 39 * 2;
#X obj 85 39 * 4;
#X obj 120 60 osc~;
#X obj 120 82 *~;
#X obj 120 39 * 5;
#X obj 155 11 r p3;
#X obj 85 136 r s0;
#X obj 15 208 *~;
#X obj 85 180 + 1;
#X obj 85 158 * 2;
#X obj 15 230 clip~ -1 1;
#X connect 2 0 3 0;
#X connect 3 0 1 0;
#X connect 4 0 16 1;
#X connect 5 0 6 0;
#X connect 6 0 16 0;
#X connect 7 0 6 1;
#X connect 8 0 11 0;
#X connect 8 0 17 0;
#X connect 8 0 18 0;
#X connect 8 0 21 0;
#X connect 9 0 10 0;
#X connect 10 0 16 0;
#X connect 11 0 9 0;
#X connect 12 0 10 1;
#X connect 13 0 14 0;
#X connect 14 0 16 0;
#X connect 15 0 14 1;
#X connect 16 0 24 0;
#X connect 17 0 5 0;
#X connect 18 0 13 0;
#X connect 19 0 20 0;
#X connect 20 0 16 0;
#X connect 21 0 19 0;
#X connect 22 0 20 1;
#X connect 23 0 26 0;
#X connect 24 0 27 0;
#X connect 25 0 24 1;
#X connect 26 0 25 0;
#X connect 27 0 0 0;
