#N canvas 391 306 526 277 10;
#X obj 103 507 throw~ todac;
#X obj 174 124 switch~;
#X obj 216 16 r pr;
#X obj 234 507 *~;
#X obj 329 446 r p0;
#X obj 623 359 r p2;
#X obj 237 463 *~;
#X obj 216 98 == 8;
#X obj 138 303 noise~;
#X obj 319 252 r~ rms;
#X floatatom 246 117 5 0 0 0 - - -;
#X floatatom 329 467 5 0 0 0 - - -;
#X floatatom 335 87 5 0 0 0 - - -;
#X obj 319 273 *~ 4;
#X obj 134 370 hip~ 1000;
#X obj 134 391 lop~ 500;
#X obj 134 412 *~ 4;
#X connect 2 0 7 0;
#X connect 2 0 12 0;
#X connect 3 0 0 0;
#X connect 4 0 3 1;
#X connect 4 0 11 0;
#X connect 6 0 3 0;
#X connect 7 0 1 0;
#X connect 7 0 10 0;
#X connect 8 0 14 0;
#X connect 9 0 13 0;
#X connect 13 0 6 1;
#X connect 14 0 15 0;
#X connect 15 0 16 0;
#X connect 16 0 6 0;
