#N canvas 391 306 178 228 10;
#X obj 18 180 throw~ todac;
#X obj 96 61 switch~;
#X obj 96 19 r pr;
#X obj 18 158 *~;
#X obj 96 132 r p0;
#X obj 18 132 *~;
#X obj 96 40 == 8;
#X obj 18 19 noise~;
#X obj 96 83 r~ rms;
#X obj 96 104 *~ 4;
#X obj 18 40 hip~ 1000;
#X obj 18 61 lop~ 500;
#X obj 18 82 *~ 4;
#X connect 2 0 6 0;
#X connect 3 0 0 0;
#X connect 4 0 3 1;
#X connect 5 0 3 0;
#X connect 6 0 1 0;
#X connect 7 0 10 0;
#X connect 8 0 9 0;
#X connect 9 0 5 1;
#X connect 10 0 11 0;
#X connect 11 0 12 0;
#X connect 12 0 5 0;
