#N canvas 751 509 514 214 10;
#X obj 19 33 phasor~;
#X obj 19 117 outlet~;
#N canvas 205 286 650 599 wavetables 0;
#X obj 19 77 metro 30;
#X obj 19 55 > 1;
#X obj 19 226 t b b;
#X obj 19 292 * 2;
#X obj 19 314 - 1, f 4;
#X obj 19 248 random 10000;
#X obj 19 270 / 10000;
#X obj 455 275 * 2;
#X obj 455 297 - 1, f 4;
#X obj 455 231 random 10000;
#X obj 455 253 / 10000;
#X obj 392 316 list;
#X obj 344 339 list prepend;
#X msg 346 231 list;
#X obj 455 319 /;
#X obj 422 231 + 1;
#X obj 393 231 f 1;
#X obj 363 203 f 1;
#X obj 393 204 t b b;
#X obj 329 161 t b b b b;
#X obj 329 389 s wtl;
#X obj 19 440 r wtl;
#X obj 19 467 t b l;
#X obj 243 253 * 2;
#X obj 243 275 - 1, f 4;
#X obj 243 209 random 10000;
#X obj 243 231 / 10000;
#X obj 242 316 list;
#X obj 194 339 list prepend;
#X msg 196 187 list;
#X obj 179 389 s wtl;
#X obj 19 139 spigot;
#X obj 179 139 spigot;
#X obj 329 139 spigot;
#X obj 19 204 until;
#X msg 19 182 64;
#X obj 243 187 until;
#X msg 243 166 64;
#X obj 179 162 t b b b;
#X obj 393 183 until;
#X msg 393 162 64;
#X msg 19 494 \; rwavetable sinesum 64 \$1 \$2 \$3 \$4 \$5 \$6 \$7
\$8 \$9 \$10 \$11 \$12 \$13;
#X msg 19 547 \; rwavetable normalize;
#X obj 19 413 table rwavetable;
#X msg 19 358 \; rwavetable resize 64;
#X obj 19 336 tabwrite rwavetable;
#X obj 179 367 list;
#X obj 329 367 list;
#X obj 52 115 == 1;
#X obj 212 115 == 2;
#X obj 362 115 == 3;
#X obj 85 115 sel 1;
#X obj 247 115 sel 2;
#X obj 395 115 sel 3;
#X obj 19 33 t f f;
#X obj 19 11 inlet;
#X obj 212 11 inlet;
#X msg 447 144 \; rwavetable sinesum 64 0;
#X obj 447 115 sel 0;
#X obj 130 314 + 1;
#X obj 157 291 mod 64;
#X obj 130 291 f 0;
#X obj 19 162 t b b b;
#X msg 58 182 0;
#X connect 0 0 31 0;
#X connect 0 0 32 0;
#X connect 0 0 33 0;
#X connect 1 0 0 0;
#X connect 2 0 5 0;
#X connect 2 1 61 0;
#X connect 3 0 4 0;
#X connect 4 0 45 0;
#X connect 5 0 6 0;
#X connect 6 0 3 0;
#X connect 7 0 8 0;
#X connect 8 0 14 0;
#X connect 9 0 10 0;
#X connect 10 0 7 0;
#X connect 11 0 12 1;
#X connect 12 0 11 0;
#X connect 12 0 47 1;
#X connect 13 0 11 0;
#X connect 14 0 12 0;
#X connect 15 0 16 1;
#X connect 16 0 15 0;
#X connect 16 0 14 1;
#X connect 17 0 16 1;
#X connect 18 0 16 0;
#X connect 18 1 9 0;
#X connect 19 0 47 0;
#X connect 19 1 13 0;
#X connect 19 2 17 0;
#X connect 19 3 40 0;
#X connect 21 0 22 0;
#X connect 22 0 42 0;
#X connect 22 1 41 0;
#X connect 23 0 24 0;
#X connect 24 0 28 0;
#X connect 25 0 26 0;
#X connect 26 0 23 0;
#X connect 27 0 28 1;
#X connect 28 0 27 0;
#X connect 28 0 46 1;
#X connect 29 0 27 0;
#X connect 31 0 62 0;
#X connect 32 0 38 0;
#X connect 33 0 19 0;
#X connect 34 0 2 0;
#X connect 35 0 34 0;
#X connect 36 0 25 0;
#X connect 37 0 36 0;
#X connect 38 0 46 0;
#X connect 38 1 29 0;
#X connect 38 2 37 0;
#X connect 39 0 18 0;
#X connect 40 0 39 0;
#X connect 46 0 30 0;
#X connect 47 0 20 0;
#X connect 48 0 31 1;
#X connect 49 0 32 1;
#X connect 50 0 33 1;
#X connect 51 0 62 0;
#X connect 52 0 38 0;
#X connect 53 0 19 0;
#X connect 54 0 1 0;
#X connect 54 1 0 1;
#X connect 55 0 54 0;
#X connect 56 0 49 0;
#X connect 56 0 58 0;
#X connect 56 0 53 0;
#X connect 56 0 52 0;
#X connect 56 0 51 0;
#X connect 56 0 50 0;
#X connect 56 0 48 0;
#X connect 58 0 57 0;
#X connect 59 0 60 0;
#X connect 59 0 45 1;
#X connect 60 0 61 1;
#X connect 61 0 59 0;
#X connect 62 0 35 0;
#X connect 62 1 44 0;
#X connect 62 2 63 0;
#X connect 63 0 61 1;
#X restore 241 86 pd wavetables;
#X obj 19 75 tabread4~ rwavetable;
#X obj 161 12 inlet filter;
#X obj 19 12 inlet;
#X obj 339 12 inlet table_option;
#X obj 241 12 inlet granulate;
#X obj 57 12 inlet table_size;
#X obj 19 54 *~ \$1;
#X obj 19 96 lop~ \$2;
#X obj 254 37 loadbang;
#X obj 254 60 f \$3;
#X obj 284 60 f \$4;
#X connect 0 0 9 0;
#X connect 3 0 10 0;
#X connect 4 0 10 1;
#X connect 5 0 0 0;
#X connect 6 0 2 1;
#X connect 7 0 2 0;
#X connect 8 0 9 1;
#X connect 9 0 3 0;
#X connect 10 0 1 0;
#X connect 11 0 12 0;
#X connect 11 0 13 0;
#X connect 12 0 2 0;
#X connect 13 0 2 1;
