#N canvas 1114 205 453 402 10;
#X obj 155 240 *~;
#X obj 23 315 outlet~;
#X obj 23 286 *~;
#X obj 145 285 *~;
#X obj 155 82 timer;
#X obj 155 60 t b b;
#X obj 155 38 sel 0;
#X obj 155 127 spigot;
#X obj 38 264 == 0;
#X obj 71 16 inlet on/off;
#X obj 155 16 inlet tap_tempo;
#X obj 257 16 inlet tempo;
#X obj 335 16 inlet feedback;
#X obj 257 127 * \$1;
#X obj 188 106 != \$1;
#X obj 155 314 delwrite~ \$0-delay \$1;
#X obj 23 16 inlet~;
#X obj 335 127 f \$2;
#X obj 335 106 loadbang;
#X obj 155 186 line~;
#X msg 335 37 \$1 70;
#X obj 335 58 line~;
#X msg 257 148 \$1 2000;
#X obj 155 209 delread4~ \$0-delay;
#X msg 155 166 \$1 1000;
#X connect 0 0 15 0;
#X connect 2 0 1 0;
#X connect 3 0 15 0;
#X connect 4 0 7 0;
#X connect 4 0 14 0;
#X connect 5 0 4 0;
#X connect 5 1 4 1;
#X connect 6 0 5 0;
#X connect 7 0 24 0;
#X connect 8 0 2 1;
#X connect 9 0 8 0;
#X connect 9 0 3 1;
#X connect 10 0 6 0;
#X connect 11 0 13 0;
#X connect 12 0 20 0;
#X connect 13 0 22 0;
#X connect 14 0 7 1;
#X connect 16 0 2 0;
#X connect 16 0 3 0;
#X connect 17 0 24 0;
#X connect 18 0 17 0;
#X connect 19 0 23 0;
#X connect 20 0 21 0;
#X connect 21 0 0 1;
#X connect 22 0 19 0;
#X connect 23 0 0 0;
#X connect 23 0 1 0;
#X connect 24 0 19 0;
