#N canvas 404 671 421 258 10;
#X obj 182 12 inlet rate;
#X obj 9 12 inlet~ signal;
#X obj 328 12 inlet depth;
#X obj 182 78 *~;
#X obj 9 230 outlet~ mono;
#X obj 182 56 osc~ 0.5;
#X obj 167 169 *~;
#X obj 182 101 clip~ -1 1;
#X obj 328 33 expr 1-$f1;
#X obj 252 12 inlet shape;
#X obj 9 203 *~;
#X obj 24 179 == 0;
#X obj 99 12 inlet on/off;
#X obj 84 203 *~;
#X obj 252 33 + 1;
#X obj 182 33 + 0.5;
#X obj 342 123 *~ 1;
#X obj 342 145 +~ 0;
#X connect 0 0 15 0;
#X connect 1 0 6 0;
#X connect 1 0 10 0;
#X connect 2 0 8 0;
#X connect 2 0 16 1;
#X connect 3 0 7 0;
#X connect 5 0 3 0;
#X connect 6 0 13 0;
#X connect 7 0 6 1;
#X connect 8 0 17 1;
#X connect 9 0 14 0;
#X connect 10 0 4 0;
#X connect 11 0 10 1;
#X connect 12 0 11 0;
#X connect 12 0 13 1;
#X connect 13 0 4 0;
#X connect 14 0 3 1;
#X connect 15 0 5 0;
#X connect 16 0 17 0;
