#N canvas 456 538 450 300 10;
#X obj 13 121 *~;
#X obj 13 8 r~ fr;
#X obj 253 65 switch~;
#X obj 103 88 r~ rms;
#X obj 13 51 basic_tables;
#X obj 103 51 random_tables;
#X obj 253 17 r bank;
#X obj 253 41 expr $f1 == 1 || $f1 == 3;
#X obj 13 144 throw~ tofx;
#X connect 0 0 8 0;
#X connect 1 0 4 0;
#X connect 1 0 5 0;
#X connect 3 0 0 1;
#X connect 4 0 0 0;
#X connect 5 0 0 0;
#X connect 6 0 7 0;
#X connect 7 0 2 0;
